<svg width="96" height="50" viewBox="0 0 96 50" fill="none" xmlns="http://www.w3.org/2000/svg">
<path fill-rule="evenodd" clip-rule="evenodd" d="M75.3079 31.6758C76.7887 31.6758 77.7778 33.1164 77.2745 34.5452C77.0264 35.2609 76.5398 35.8053 76.0527 36.3503C76.0112 36.3968 75.9697 36.4432 75.9283 36.4898C75.583 36.8752 75.2494 37.2724 74.9626 37.6992C74.5529 38.3099 74.348 39.0154 74.2134 39.7387C74.1724 39.964 74.1197 40.1833 74.0495 40.3967C73.6866 41.5706 72.7267 42.122 71.562 41.7603C70.128 41.3157 69.3262 40.2485 68.9399 38.8316C68.6648 37.8119 68.8228 36.8455 69.4374 35.9918C69.6247 35.725 69.9407 35.5294 70.2334 35.3752C70.4638 35.2537 70.7257 35.1919 70.9836 35.1311C71.0401 35.1178 71.0965 35.1045 71.1523 35.0907C71.8312 34.9246 72.2995 34.5156 72.6448 33.9109C72.9257 33.4188 73.2242 32.9267 73.5871 32.4939C74.0261 31.9722 74.6114 31.6758 75.3079 31.6758ZM90.3669 37.883C90.2909 39.4245 89.6587 40.6517 88.336 41.4698C87.8151 41.79 87.2473 41.9441 86.6269 41.8315C85.9831 41.7129 85.509 41.3631 85.269 40.7466C85.1227 40.3612 85.0173 39.958 84.9354 39.5549C84.6954 38.3929 84.1687 37.4028 83.3375 36.555C82.9161 36.1222 82.5357 35.642 82.1962 35.144C81.886 34.6935 81.7221 34.1658 81.7865 33.6026C81.9796 31.9367 83.7648 31.1363 85.1402 32.0967C85.7607 32.5295 86.1821 33.1342 86.4923 33.816C86.8318 34.5452 87.3878 34.9484 88.1428 35.1322C88.4764 35.2152 88.8101 35.3397 89.1203 35.4938C90.0158 35.9385 90.2792 36.7625 90.3611 37.6933C90.3699 37.7333 90.3688 37.7833 90.3677 37.8334V37.8334C90.3674 37.8451 90.3672 37.8568 90.367 37.8684C90.367 37.8733 90.3669 37.8782 90.3669 37.883ZM80.1443 41.9773C79.968 41.949 79.7917 41.9207 79.6158 41.8907C79.6158 41.8965 79.6152 41.9028 79.6145 41.9094C79.6132 41.9232 79.6118 41.938 79.6158 41.95C79.4987 41.9589 79.3816 41.9649 79.2646 41.9708C79.1475 41.9767 79.0305 41.9826 78.9134 41.9915C78.2462 42.0449 77.5906 42.1575 77.0054 42.5014C75.8991 43.1535 75.8231 44.5053 76.859 45.2641C77.0483 45.4035 77.2597 45.5142 77.47 45.6242C77.5458 45.6639 77.6215 45.7035 77.696 45.7443C77.8079 45.8066 77.9223 45.8663 78.0368 45.9261C78.2274 46.0257 78.4181 46.1252 78.5974 46.2364C78.89 46.4202 79.1007 46.687 79.1183 47.0486C79.1592 47.8905 78.7612 48.5901 77.7955 48.596C77.6024 48.596 77.3916 48.596 77.2161 48.5308C76.9674 48.4406 76.7252 48.3357 76.4827 48.2308C76.2628 48.1356 76.0426 48.0403 75.8172 47.9557C75.6826 47.9023 75.4777 47.9023 75.3665 47.9794C75.2729 48.0446 75.2202 48.2581 75.2378 48.3885C75.2553 48.4952 75.3899 48.6078 75.4953 48.6849C77.0522 49.7698 78.7671 50.1848 80.6342 49.924C81.7814 49.7639 82.829 49.3311 83.7772 48.6493C84.0113 48.4833 84.0699 48.264 83.9469 48.0683C83.8182 47.8668 83.6075 47.8312 83.3558 47.9735C83.3119 47.9972 83.2695 48.0209 83.2271 48.0446C83.1846 48.0683 83.1422 48.092 83.0983 48.1158C82.513 48.4359 81.9043 48.6553 81.2253 48.5901C80.6693 48.5308 80.283 48.1928 80.1425 47.6533C79.9786 47.019 80.1074 46.5803 80.5991 46.2483C80.7722 46.1314 80.9591 46.0364 81.1461 45.9414C81.2815 45.8726 81.4169 45.8037 81.5472 45.7265C81.6228 45.6825 81.6994 45.6395 81.7761 45.5965C82.0502 45.4429 82.3253 45.2888 82.5539 45.0803C83.2973 44.4045 83.2329 43.2543 82.4252 42.6615C82.1794 42.4777 81.8867 42.3176 81.5941 42.2465C81.1172 42.1333 80.6309 42.0553 80.1443 41.9773Z" fill="white"/>
<path fill-rule="evenodd" clip-rule="evenodd" d="M26.1485 49.9989V45.1884H7.53358L25.5791 23.1914V19.3867H0.306599V24.1972H18.0456L0 46.1943V49.9989H26.1485ZM54.7789 34.6928C54.7789 40.1334 50.3593 44.5583 44.8896 44.5583C39.4199 44.5583 35.0002 40.1334 35.0002 34.6928C35.0002 29.2523 39.4199 24.8273 44.8896 24.8273C50.3593 24.8273 54.7789 29.2523 54.7789 34.6928ZM60.2195 34.6928C60.2195 43.1461 53.3561 49.9989 44.8896 49.9989C36.4231 49.9989 29.5596 43.1461 29.5596 34.6928C29.5596 26.2395 36.4231 19.3867 44.8896 19.3867C53.3561 19.3867 60.2195 26.2395 60.2195 34.6928Z" fill="white"/>
<path fill-rule="evenodd" clip-rule="evenodd" d="M52.3476 4.98807H49.8291V16.1798H52.3476V4.98807ZM49.95 2.70362C50.2589 2.99703 50.6417 3.14374 51.0984 3.14374C51.5685 3.14374 51.9514 2.99005 52.2469 2.68266C52.5558 2.3613 52.7103 1.97008 52.7103 1.509C52.7103 1.07586 52.5558 0.719568 52.2469 0.440123C51.9379 0.146708 51.5551 0 51.0984 0C50.6417 0 50.2589 0.153694 49.95 0.461081C49.6411 0.754498 49.4866 1.12476 49.4866 1.57187C49.4866 2.01898 49.6411 2.39623 49.95 2.70362ZM44.0051 0.628748H46.5236V16.1798H44.0051V0.628748ZM19.1203 15.593C19.9933 16.082 20.9739 16.3265 22.0619 16.3265C23.1633 16.3265 24.1505 16.082 25.0236 15.593C25.8967 15.1039 26.575 14.4263 27.0586 13.56C27.5556 12.6798 27.804 11.6877 27.804 10.5839C27.804 9.48013 27.5556 8.49509 27.0586 7.62882C26.575 6.76254 25.8967 6.08489 25.0236 5.59586C24.1505 5.10684 23.1633 4.86232 22.0619 4.86232C20.9739 4.86232 19.9933 5.10684 19.1203 5.59586C18.2472 6.08489 17.5622 6.76254 17.0652 7.62882C16.5816 8.49509 16.3398 9.48013 16.3398 10.5839C16.3398 11.6877 16.5816 12.6798 17.0652 13.56C17.5622 14.4263 18.2472 15.1039 19.1203 15.593ZM24.3587 13.1199C23.7543 13.7626 22.9887 14.084 22.0619 14.084C21.1351 14.084 20.3694 13.7626 19.765 13.1199C19.174 12.4772 18.8785 11.6319 18.8785 10.5839C18.8785 9.53602 19.174 8.6907 19.765 8.04798C20.3694 7.40526 21.1351 7.0839 22.0619 7.0839C22.9887 7.0839 23.7543 7.40526 24.3587 8.04798C24.9632 8.6907 25.2654 9.53602 25.2654 10.5839C25.2654 11.6319 24.9632 12.4772 24.3587 13.1199ZM39.5812 6.09886C38.7618 5.2745 37.6738 4.86232 36.3172 4.86232C35.5247 4.86232 34.8128 4.99506 34.1815 5.26053C33.5502 5.526 33.0264 5.91722 32.61 6.43419V4.98807H30.2124V16.1798H32.7309V10.5211C32.7309 9.43123 32.9995 8.59988 33.5368 8.02702C34.0741 7.44019 34.8061 7.14678 35.7329 7.14678C36.5523 7.14678 37.1836 7.39828 37.6268 7.90127C38.0701 8.3903 38.2917 9.12384 38.2917 10.1019V16.1798H40.8102V9.76656C40.8102 8.14579 40.4005 6.92322 39.5812 6.09886ZM61.758 4.86232C63.1146 4.86232 64.2026 5.2745 65.0219 6.09886C65.8413 6.92322 66.251 8.14579 66.251 9.76656V16.1798H63.7325V10.1019C63.7325 9.12384 63.5108 8.3903 63.0676 7.90127C62.6243 7.39828 61.993 7.14678 61.1737 7.14678C60.2469 7.14678 59.5148 7.44019 58.9775 8.02702C58.4403 8.59988 58.1716 9.43123 58.1716 10.5211V16.1798H55.6531V4.98807H58.0507V6.43419C58.4671 5.91722 58.991 5.526 59.6223 5.26053C60.2536 4.99506 60.9655 4.86232 61.758 4.86232ZM79.6182 11.4223C79.6451 11.0869 79.6585 10.8284 79.6585 10.6468C79.6585 9.50109 79.4234 8.49509 78.9533 7.62882C78.4966 6.74857 77.8519 6.07092 77.0191 5.59586C76.1998 5.10684 75.2662 4.86232 74.2185 4.86232C73.1574 4.86232 72.2038 5.10684 71.3575 5.59586C70.5113 6.08489 69.8464 6.76953 69.3629 7.64978C68.8928 8.51605 68.6577 9.4941 68.6577 10.5839C68.6577 11.6877 68.8995 12.6798 69.383 13.56C69.88 14.4263 70.5785 15.1039 71.4784 15.593C72.3784 16.082 73.4193 16.3265 74.6014 16.3265C75.5282 16.3265 76.361 16.1728 77.0997 15.8654C77.8385 15.558 78.4496 15.1039 78.9332 14.5031L77.5833 12.8893C76.8176 13.6997 75.8438 14.1049 74.6618 14.1049C73.735 14.1049 72.9559 13.8674 72.3246 13.3923C71.7068 12.9033 71.324 12.2466 71.1762 11.4223H79.6182ZM72.1635 7.71265C72.7276 7.20965 73.4126 6.95815 74.2185 6.95815C75.0379 6.95815 75.7229 7.20965 76.2736 7.71265C76.8244 8.21565 77.1534 8.87234 77.2609 9.68273H71.1561C71.2769 8.85837 71.6127 8.20168 72.1635 7.71265ZM93.0237 31.6501C94.8185 30.4484 96 28.4041 96 26.0843C96 22.3859 92.9971 19.3877 89.2929 19.3877C86.9235 19.3877 84.8411 20.6144 83.6479 22.4665C87.9921 23.9574 91.45 27.3508 93.0237 31.6501ZM66.2604 31.6504C64.4654 30.4487 63.2839 28.4044 63.2839 26.0845C63.2839 22.3861 66.2868 19.3879 69.991 19.3879C72.3604 19.3879 74.4429 20.6147 75.636 22.4668C71.2919 23.9577 67.834 27.3511 66.2604 31.6504Z" fill="white"/>
</svg>
