<svg width="138" height="52" viewBox="0 0 138 52" fill="none" xmlns="http://www.w3.org/2000/svg">
<g clip-path="url(#clip0)">
<path d="M71.2467 16.9286L77.8122 16.5054C77.962 17.5759 78.2366 18.3726 78.686 18.9452C79.4099 19.8414 80.4085 20.2895 81.7316 20.2895C82.7051 20.2895 83.479 20.0655 84.0033 19.5925C84.5025 19.219 84.8021 18.6215 84.8021 17.9991C84.8021 17.4016 84.5275 16.829 84.0532 16.4556C83.5539 16.0075 82.3806 15.5593 80.5333 15.161C77.5127 14.4888 75.3408 13.5926 74.0677 12.4474C72.7945 11.3768 72.0705 9.80841 72.1205 8.14039C72.1205 6.99518 72.47 5.84997 73.119 4.90393C73.8679 3.83341 74.8915 2.98695 76.1147 2.51393C77.4378 1.94133 79.2851 1.64258 81.6067 1.64258C84.4526 1.64258 86.6245 2.16539 88.1223 3.23591C89.6201 4.28153 90.5188 5.97445 90.7934 8.28976L84.3028 8.6632C84.1281 7.66737 83.7786 6.94539 83.2044 6.47237C82.6302 5.99935 81.8813 5.77528 80.9077 5.77528C80.1089 5.77528 79.5098 5.94955 79.1104 6.2732C78.7359 6.57195 78.4863 7.02007 78.5112 7.51799C78.5112 7.89143 78.7109 8.23997 79.0105 8.46403C79.335 8.76278 80.1089 9.03663 81.3321 9.28559C84.3528 9.93288 86.4996 10.5802 87.8227 11.2524C89.1458 11.9246 90.0944 12.7461 90.6686 13.717C91.2677 14.7129 91.5673 15.8581 91.5423 17.0282C91.5423 18.4224 91.1429 19.8165 90.3441 20.9866C89.5203 22.2065 88.3719 23.1526 87.0239 23.7252C85.6009 24.3476 83.8036 24.6712 81.6567 24.6712C77.8622 24.6712 75.241 23.9492 73.7681 22.4804C72.2952 21.0115 71.4215 19.1692 71.2467 16.9286ZM1.57272 24.2978V2.04091H13.081C15.203 2.04091 16.8506 2.21518 17.974 2.58862C19.0724 2.93716 20.0459 3.65914 20.695 4.63008C21.419 5.7006 21.7685 6.94539 21.7435 8.23997C21.8184 10.4308 20.695 12.522 18.7728 13.6175C18.0239 14.0407 17.2001 14.3394 16.3513 14.4888C16.9754 14.6631 17.5995 14.9618 18.1487 15.3104C18.5731 15.6589 18.9226 16.0573 19.2471 16.4805C19.6216 16.9037 19.9461 17.3767 20.2207 17.8747L23.5658 24.3227H15.7272L12.0326 17.4763C11.5582 16.605 11.1588 16.0324 10.7844 15.7585C10.2851 15.41 9.68596 15.2357 9.08683 15.2357H8.4877V24.2729H1.57272V24.2978ZM8.4877 11.0532H11.4085C12.0326 11.0034 12.6317 10.9038 13.2308 10.7544C13.6802 10.6798 14.0796 10.4308 14.3542 10.0574C15.0282 9.16112 14.9284 7.89143 14.1046 7.11966C13.6552 6.74622 12.7815 6.54705 11.5333 6.54705H8.4877V11.0532ZM0 43.368L6.56549 42.9447C6.71527 44.0153 6.98987 44.8119 7.43922 45.3845C8.13821 46.2808 9.16172 46.7538 10.4848 46.7538C11.4584 46.7538 12.2323 46.5297 12.7565 46.0567C13.2558 45.6584 13.5554 45.0858 13.5554 44.4634C13.5554 43.8659 13.2808 43.2933 12.8064 42.9198C12.3072 42.4717 11.1339 42.0236 9.26158 41.6253C6.24095 40.9531 4.0691 40.0568 2.79595 38.9116C1.52279 37.8411 0.798842 36.2727 0.84877 34.6046C0.84877 33.4594 1.19826 32.3142 1.84732 31.3682C2.59624 30.2977 3.61975 29.4512 4.84298 28.9782C6.16606 28.4056 8.01339 28.1068 10.335 28.1068C13.1809 28.1068 15.3527 28.6296 16.8506 29.7002C18.3484 30.7707 19.2221 32.4387 19.4967 34.754L13.0062 35.1274C12.8314 34.1316 12.4819 33.4096 11.9077 32.9366C11.3585 32.4636 10.5847 32.2395 9.61107 32.2644C8.81223 32.2644 8.2131 32.4387 7.81368 32.7872C7.41425 33.086 7.18958 33.5341 7.21454 34.032C7.21454 34.4055 7.41425 34.754 7.71382 34.9781C8.03835 35.2768 8.81223 35.5507 10.0355 35.7996C13.0561 36.4469 15.203 37.0942 16.526 37.7664C17.8491 38.4386 18.7978 39.2602 19.3719 40.2311C19.9711 41.2269 20.2706 42.3721 20.2706 43.5173C20.2706 44.9115 19.8462 46.2808 19.0724 47.4509C18.2486 48.6708 17.1002 49.6168 15.7522 50.1894C14.3292 50.8118 12.5318 51.1355 10.3849 51.1355C6.59045 51.1355 3.96925 50.4135 2.49638 48.9446C1.02352 47.4509 0.199711 45.6086 0 43.368H0Z" fill="white"/>
<path d="M33.2007 41.6258L39.242 43.4432C38.9174 44.9619 38.2434 46.4058 37.3198 47.6755C36.471 48.7958 35.3476 49.6672 34.0745 50.2398C32.7763 50.8124 31.1287 51.1112 29.1316 51.1112C26.7101 51.1112 24.713 50.7626 23.1902 50.0655C21.6425 49.3684 20.3194 48.1237 19.196 46.3561C18.0726 44.5884 17.5234 42.3229 17.5234 39.5595C17.5234 35.8749 18.497 33.0368 20.4692 31.07C22.4413 29.1033 25.2123 28.1074 28.8071 28.1074C31.628 28.1074 33.8248 28.68 35.4475 29.8003C37.0451 30.9455 38.2434 32.6883 39.0423 35.0285L32.9511 36.3728C32.8013 35.85 32.5766 35.3272 32.2771 34.8791C31.9026 34.3563 31.4283 33.9579 30.8541 33.6592C30.28 33.3604 29.6309 33.236 28.9818 33.236C27.4091 33.236 26.2108 33.8584 25.387 35.128C24.7629 36.0492 24.4384 37.518 24.4384 39.5097C24.4384 41.9744 24.8129 43.6673 25.5618 44.5885C26.3107 45.5096 27.3592 45.9577 28.7322 45.9577C30.0553 45.9577 31.0538 45.5843 31.7279 44.8623C32.4019 44.0905 32.9012 43.02 33.2007 41.6258ZM47.3053 28.4809H54.1953V36.2732H61.7344V28.4809H68.6743V50.7377H61.7344V41.7254H54.1953V50.7377H47.3053V28.4809Z" fill="white"/>
<path d="M67.7266 39.6088C67.7266 35.974 68.7501 33.1359 70.7722 31.1193C72.7942 29.1028 75.6401 28.082 79.2599 28.082C82.9795 28.082 85.8253 29.0779 87.8474 31.0695C89.8695 33.0612 90.868 35.8495 90.868 39.4345C90.868 42.0486 90.4187 44.1647 89.545 45.8327C88.6962 47.4759 87.3731 48.8202 85.7504 49.7165C84.0779 50.6376 82.0059 51.1107 79.5345 51.1107C77.0131 51.1107 74.9411 50.7123 73.2935 49.9157C71.596 49.0692 70.198 47.7497 69.2743 46.1315C68.2508 44.3888 67.7266 42.2229 67.7266 39.6088ZM74.6166 39.6337C74.6166 41.8743 75.041 43.4925 75.8648 44.4884C76.6886 45.4593 77.8369 45.9572 79.2848 45.9572C80.7577 45.9572 81.906 45.4842 82.7298 44.5133C83.5536 43.5423 83.9531 41.8245 83.9531 39.3349C83.9531 37.2437 83.5287 35.7002 82.6799 34.7541C81.8311 33.7832 80.6828 33.3102 79.2349 33.3102C77.9617 33.2604 76.7385 33.8081 75.8897 34.779C75.041 35.7499 74.6166 37.3682 74.6166 39.6337ZM97.9328 39.6088C97.9328 35.974 98.9563 33.1359 100.978 31.1193C103 29.1028 105.846 28.082 109.466 28.082C113.186 28.082 116.057 29.0779 118.054 31.0695C120.051 33.0612 121.074 35.8495 121.074 39.4345C121.074 42.0486 120.625 44.1647 119.751 45.8327C118.902 47.4759 117.579 48.8202 115.957 49.7165C114.284 50.6376 112.212 51.1107 109.741 51.1107C107.219 51.1107 105.147 50.7123 103.5 49.9157C101.802 49.0692 100.404 47.7497 99.4806 46.1315C98.457 44.3888 97.9328 42.2229 97.9328 39.6088ZM104.823 39.6337C104.823 41.8743 105.247 43.4925 106.071 44.4884C106.895 45.4593 108.043 45.9572 109.491 45.9572C110.964 45.9572 112.112 45.4842 112.936 44.5133C113.76 43.5423 114.159 41.8245 114.159 39.3349C114.159 37.2437 113.735 35.7002 112.886 34.7541C112.037 33.7832 110.889 33.3102 109.441 33.3102C108.168 33.2604 106.92 33.8081 106.096 34.779C105.247 35.7499 104.823 37.3682 104.823 39.6337Z" fill="white"/>
<path d="M120.35 28.4805H127.24V45.2602H138V50.7373H120.325V28.4805H120.35Z" fill="white"/>
<path d="M112.722 27.2012C119.653 21.9804 121.793 13.1331 117.501 7.44034C113.209 1.74756 104.111 1.36499 97.1805 6.58585C90.2495 11.8067 88.11 20.654 92.4018 26.3468C96.6935 32.0395 105.791 32.4221 112.722 27.2012Z" stroke="white" stroke-width="0.180618" stroke-miterlimit="10"/>
<path d="M112.722 27.2012C119.653 21.9804 121.793 13.1331 117.501 7.44034C113.209 1.74756 104.111 1.36499 97.1805 6.58585C90.2495 11.8067 88.11 20.654 92.4018 26.3468C96.6935 32.0395 105.791 32.4221 112.722 27.2012Z" stroke="white" stroke-width="0.180618" stroke-miterlimit="10"/>
<path d="M97.9567 15.263L100.453 13.5203L103.524 17.877C104.048 18.5741 104.447 19.321 104.747 20.1425C104.922 20.7649 104.872 21.4371 104.622 22.0346C104.297 22.7815 103.773 23.4039 103.074 23.852C102.25 24.4246 101.551 24.7483 100.952 24.8479C100.378 24.9474 99.779 24.8479 99.2298 24.5989C98.6307 24.3001 98.1065 23.8769 97.707 23.3292L99.8539 21.3375C100.029 21.6114 100.253 21.8604 100.503 22.0595C100.678 22.184 100.877 22.2587 101.102 22.2587C101.277 22.2587 101.452 22.184 101.576 22.0844C101.826 21.935 102.001 21.6363 101.976 21.3375C101.901 20.9143 101.726 20.4911 101.452 20.1674L97.9567 15.263ZM105.446 18.0264L107.718 16.2339C107.967 16.5326 108.292 16.7567 108.641 16.8812C109.14 17.0306 109.665 16.931 110.089 16.6073C110.389 16.4082 110.638 16.1343 110.738 15.7858C110.888 15.3377 110.638 14.8397 110.189 14.6904C110.114 14.6655 110.039 14.6406 109.964 14.6406C109.665 14.6157 109.14 14.7402 108.367 15.0638C107.093 15.5866 106.095 15.7858 105.346 15.7111C104.622 15.6364 103.948 15.263 103.549 14.6406C103.249 14.2173 103.099 13.7194 103.074 13.2215C103.074 12.6489 103.224 12.0763 103.549 11.6033C104.023 10.9311 104.597 10.3585 105.296 9.91036C106.345 9.18838 107.268 8.83984 108.067 8.83984C108.866 8.83984 109.615 9.21328 110.314 9.98505L108.067 11.7527C107.618 11.1801 106.769 11.0556 106.195 11.5037L106.12 11.5784C105.87 11.7278 105.695 11.9518 105.596 12.2257C105.521 12.4248 105.571 12.6489 105.695 12.8232C105.795 12.9477 105.945 13.0472 106.12 13.0472C106.32 13.0721 106.669 12.9725 107.168 12.7485C108.417 12.2257 109.365 11.9269 110.014 11.8273C110.563 11.7278 111.138 11.7775 111.662 12.0016C112.136 12.2008 112.536 12.5493 112.81 12.9725C113.16 13.4705 113.359 14.068 113.384 14.6904C113.409 15.3377 113.235 15.96 112.885 16.5078C112.436 17.1799 111.862 17.7525 111.188 18.2007C109.814 19.1467 108.691 19.545 107.792 19.3957C106.819 19.2463 106.02 18.7484 105.446 18.0264Z" fill="white"/>
</g>
<defs>
<clipPath id="clip0">
<rect width="138" height="51.1111" fill="white"/>
</clipPath>
</defs>
</svg>
