<svg width="25" height="23" viewBox="0 0 25 23" fill="none" xmlns="http://www.w3.org/2000/svg">
<path fill-rule="evenodd" clip-rule="evenodd" d="M11.3639 0.180029C11.5461 0.259232 11.7115 0.375314 11.8508 0.521623C11.9904 0.667564 12.1012 0.840935 12.1768 1.03181C12.2524 1.22268 12.2913 1.4273 12.2913 1.63395C12.2913 1.8406 12.2524 2.04523 12.1768 2.2361C12.1012 2.42697 11.9904 2.60034 11.8508 2.74628L5.8231 9.06006H22.9737C23.3981 9.06006 23.805 9.27077 24.1051 9.64585C24.4052 10.0209 24.5737 10.5296 24.5737 11.0601C24.5737 11.5905 24.4052 12.0992 24.1051 12.4743C23.805 12.8493 23.3981 13.0601 22.9737 13.0601H5.82231L11.8508 19.3747C12.1323 19.6697 12.2905 20.0698 12.2905 20.487C12.2905 20.9042 12.1323 21.3043 11.8508 21.5993C11.5692 21.8943 11.1874 22.0601 10.7893 22.0601C10.3911 22.0601 10.0093 21.8943 9.72773 21.5993L0.731749 12.1728C0.592121 12.0269 0.481342 11.8535 0.405756 11.6626C0.330172 11.4717 0.291264 11.2671 0.291264 11.0605C0.291264 10.8538 0.330172 10.6492 0.405756 10.4583C0.481342 10.2675 0.592121 10.0941 0.731749 9.94814L9.72773 0.521623C9.867 0.375314 10.0325 0.259232 10.2146 0.180029C10.3968 0.100826 10.592 0.0600586 10.7893 0.0600586C10.9865 0.0600586 11.1817 0.100826 11.3639 0.180029Z" fill="white"/>
</svg>
